# xmcd
# Copyright (c) 1998 CDDB Inc.
#
# Track frame offsets:
#	150
#	28177
#	46532
#	64137
#	107004
#	135302
#	171327
#	192712
#	205350
#	237497
#	273135
#
# Disc length: 4059 seconds
#
# Revision: 1
# Processed by: cddbd v1.4PL0 Copyright (c) Steve Scherf et al.
# Submitted via: audiograbber 1.70
#
DISCID=9d0fd90b
DTITLE=Tyrone Henderson - Not so unusual Blues
DYEAR=1900
DGENRE=
TTITLE0=Uptown Train
TTITLE1=Playing Dem Demons Away
TTITLE2=Harlem River Lament
TTITLE3=I Got Jazz And Jesus
TTITLE4=Like A Bird
TTITLE5=Undomiciled
TTITLE6=Ruby Jennings
TTITLE7=Turk And Curley
TTITLE8=Grandmama
TTITLE9=Strawman Dance
TTITLE10=Corn Pipes And Dark Brown Dancing Feet
EXTD=
EXTT0=
EXTT1=
EXTT2=
EXTT3=
EXTT4=
EXTT5=
EXTT6=
EXTT7=
EXTT8=
EXTT9=
EXTT10=
PLAYORDER=
